<mxfile host="app.diagrams.net" modified="2024-07-02T12:28:55.789Z" agent="Mozilla/5.0 (Windows NT 10.0; Win64; x64) AppleWebKit/537.36 (KHTML, like Gecko) Chrome/126.0.0.0 Safari/537.36" etag="AdiDXwD_SI0W2xtRv_2x" version="24.6.4" type="device" pages="3">
  <diagram name="System Context" id="VpN-JT4xctE0cHFxicZI">
    <mxGraphModel dx="1434" dy="772" grid="1" gridSize="10" guides="1" tooltips="1" connect="1" arrows="1" fold="1" page="1" pageScale="1" pageWidth="850" pageHeight="1100" math="0" shadow="0">
      <root>
        <mxCell id="0" />
        <mxCell id="1" parent="0" />
        <mxCell id="JMRgtsi1ffVyJAObRfW9-12" value="" style="edgeStyle=orthogonalEdgeStyle;rounded=0;orthogonalLoop=1;jettySize=auto;html=1;" edge="1" parent="1" source="JMRgtsi1ffVyJAObRfW9-1" target="JMRgtsi1ffVyJAObRfW9-11">
          <mxGeometry relative="1" as="geometry" />
        </mxCell>
        <mxCell id="JMRgtsi1ffVyJAObRfW9-13" value="Via HTTP API" style="edgeLabel;html=1;align=center;verticalAlign=middle;resizable=0;points=[];" vertex="1" connectable="0" parent="JMRgtsi1ffVyJAObRfW9-12">
          <mxGeometry x="-0.44" y="-3" relative="1" as="geometry">
            <mxPoint as="offset" />
          </mxGeometry>
        </mxCell>
        <mxCell id="JMRgtsi1ffVyJAObRfW9-1" value="&lt;font style=&quot;font-size: 18px;&quot;&gt;Todo App&lt;/font&gt;" style="rounded=1;whiteSpace=wrap;html=1;fillColor=#d5e8d4;strokeColor=#82b366;" vertex="1" parent="1">
          <mxGeometry x="335" y="350" width="200" height="110" as="geometry" />
        </mxCell>
        <mxCell id="JMRgtsi1ffVyJAObRfW9-7" value="" style="edgeStyle=orthogonalEdgeStyle;rounded=0;orthogonalLoop=1;jettySize=auto;html=1;" edge="1" parent="1" source="JMRgtsi1ffVyJAObRfW9-2" target="JMRgtsi1ffVyJAObRfW9-5">
          <mxGeometry relative="1" as="geometry" />
        </mxCell>
        <mxCell id="JMRgtsi1ffVyJAObRfW9-9" value="Operates&amp;nbsp;" style="edgeLabel;html=1;align=center;verticalAlign=middle;resizable=0;points=[];" vertex="1" connectable="0" parent="JMRgtsi1ffVyJAObRfW9-7">
          <mxGeometry x="-0.3" y="-1" relative="1" as="geometry">
            <mxPoint as="offset" />
          </mxGeometry>
        </mxCell>
        <mxCell id="JMRgtsi1ffVyJAObRfW9-2" value="&lt;font style=&quot;font-size: 15px;&quot;&gt;&lt;b&gt;User&lt;/b&gt;&lt;/font&gt;" style="shape=umlActor;verticalLabelPosition=top;verticalAlign=bottom;html=1;outlineConnect=0;labelPosition=center;align=center;" vertex="1" parent="1">
          <mxGeometry x="420" y="40" width="30" height="90" as="geometry" />
        </mxCell>
        <mxCell id="JMRgtsi1ffVyJAObRfW9-8" value="" style="edgeStyle=orthogonalEdgeStyle;rounded=0;orthogonalLoop=1;jettySize=auto;html=1;" edge="1" parent="1" source="JMRgtsi1ffVyJAObRfW9-5" target="JMRgtsi1ffVyJAObRfW9-1">
          <mxGeometry relative="1" as="geometry" />
        </mxCell>
        <mxCell id="JMRgtsi1ffVyJAObRfW9-10" value="Talks over HTTP" style="edgeLabel;html=1;align=center;verticalAlign=middle;resizable=0;points=[];" vertex="1" connectable="0" parent="JMRgtsi1ffVyJAObRfW9-8">
          <mxGeometry x="-0.2" y="1" relative="1" as="geometry">
            <mxPoint as="offset" />
          </mxGeometry>
        </mxCell>
        <mxCell id="JMRgtsi1ffVyJAObRfW9-5" value="&lt;font style=&quot;font-size: 15px;&quot;&gt;Web Browser&lt;/font&gt;&lt;div style=&quot;font-size: 15px;&quot;&gt;&lt;font style=&quot;font-size: 15px;&quot;&gt;(Client)&lt;/font&gt;&lt;/div&gt;" style="rounded=1;whiteSpace=wrap;html=1;" vertex="1" parent="1">
          <mxGeometry x="350" y="170" width="170" height="90" as="geometry" />
        </mxCell>
        <mxCell id="JMRgtsi1ffVyJAObRfW9-11" value="&lt;font style=&quot;font-size: 18px;&quot;&gt;Trello API&lt;/font&gt;" style="rounded=1;whiteSpace=wrap;html=1;fillColor=#dae8fc;strokeColor=#6c8ebf;" vertex="1" parent="1">
          <mxGeometry x="335" y="550" width="200" height="110" as="geometry" />
        </mxCell>
      </root>
    </mxGraphModel>
  </diagram>
  <diagram id="4s02iePh3nbOPt7GGtRw" name="Container">
    <mxGraphModel dx="1434" dy="772" grid="1" gridSize="10" guides="1" tooltips="1" connect="1" arrows="1" fold="1" page="1" pageScale="1" pageWidth="850" pageHeight="1100" math="0" shadow="0">
      <root>
        <mxCell id="0" />
        <mxCell id="1" parent="0" />
        <mxCell id="UIeOPaC58UkcGCqv1Abo-3" value="&lt;font style=&quot;font-size: 18px;&quot;&gt;Todo App&lt;/font&gt;" style="rounded=1;whiteSpace=wrap;html=1;fillColor=#f5f5f5;strokeColor=#666666;fontColor=#333333;labelPosition=left;verticalLabelPosition=top;align=right;verticalAlign=bottom;" vertex="1" parent="1">
          <mxGeometry x="250" y="230" width="370" height="230" as="geometry" />
        </mxCell>
        <mxCell id="UIeOPaC58UkcGCqv1Abo-1" value="" style="edgeStyle=orthogonalEdgeStyle;rounded=0;orthogonalLoop=1;jettySize=auto;html=1;exitX=0.5;exitY=1;exitDx=0;exitDy=0;" edge="1" parent="1" source="UIeOPaC58UkcGCqv1Abo-12" target="UIeOPaC58UkcGCqv1Abo-10">
          <mxGeometry relative="1" as="geometry" />
        </mxCell>
        <mxCell id="UIeOPaC58UkcGCqv1Abo-2" value="Via HTTP API" style="edgeLabel;html=1;align=center;verticalAlign=middle;resizable=0;points=[];" vertex="1" connectable="0" parent="UIeOPaC58UkcGCqv1Abo-1">
          <mxGeometry x="-0.44" y="-3" relative="1" as="geometry">
            <mxPoint x="3" y="-16" as="offset" />
          </mxGeometry>
        </mxCell>
        <mxCell id="UIeOPaC58UkcGCqv1Abo-7" value="" style="edgeStyle=orthogonalEdgeStyle;rounded=0;orthogonalLoop=1;jettySize=auto;html=1;entryX=0.5;entryY=0;entryDx=0;entryDy=0;" edge="1" parent="1" source="UIeOPaC58UkcGCqv1Abo-9" target="UIeOPaC58UkcGCqv1Abo-11">
          <mxGeometry relative="1" as="geometry" />
        </mxCell>
        <mxCell id="UIeOPaC58UkcGCqv1Abo-8" value="Talks over HTTP" style="edgeLabel;html=1;align=center;verticalAlign=middle;resizable=0;points=[];" vertex="1" connectable="0" parent="UIeOPaC58UkcGCqv1Abo-7">
          <mxGeometry x="-0.2" y="1" relative="1" as="geometry">
            <mxPoint as="offset" />
          </mxGeometry>
        </mxCell>
        <mxCell id="UIeOPaC58UkcGCqv1Abo-9" value="&lt;font style=&quot;font-size: 15px;&quot;&gt;Web Browser&lt;/font&gt;&lt;div style=&quot;font-size: 15px;&quot;&gt;&lt;font style=&quot;font-size: 15px;&quot;&gt;(Client)&lt;/font&gt;&lt;/div&gt;" style="rounded=1;whiteSpace=wrap;html=1;" vertex="1" parent="1">
          <mxGeometry x="350" y="30" width="170" height="90" as="geometry" />
        </mxCell>
        <mxCell id="UIeOPaC58UkcGCqv1Abo-10" value="&lt;font style=&quot;font-size: 18px;&quot;&gt;Trello API&lt;/font&gt;" style="rounded=1;whiteSpace=wrap;html=1;fillColor=#dae8fc;strokeColor=#6c8ebf;" vertex="1" parent="1">
          <mxGeometry x="335" y="550" width="200" height="110" as="geometry" />
        </mxCell>
        <mxCell id="UIeOPaC58UkcGCqv1Abo-13" value="" style="edgeStyle=orthogonalEdgeStyle;rounded=0;orthogonalLoop=1;jettySize=auto;html=1;" edge="1" parent="1" source="UIeOPaC58UkcGCqv1Abo-11" target="UIeOPaC58UkcGCqv1Abo-12">
          <mxGeometry relative="1" as="geometry" />
        </mxCell>
        <mxCell id="UIeOPaC58UkcGCqv1Abo-14" value="Passes Request to" style="edgeLabel;html=1;align=center;verticalAlign=middle;resizable=0;points=[];" vertex="1" connectable="0" parent="UIeOPaC58UkcGCqv1Abo-13">
          <mxGeometry x="0.4" y="-1" relative="1" as="geometry">
            <mxPoint x="1" y="-15" as="offset" />
          </mxGeometry>
        </mxCell>
        <mxCell id="UIeOPaC58UkcGCqv1Abo-11" value="Flask Webserver" style="rounded=1;whiteSpace=wrap;html=1;fillColor=#fff2cc;strokeColor=#d6b656;" vertex="1" parent="1">
          <mxGeometry x="375" y="250" width="120" height="60" as="geometry" />
        </mxCell>
        <mxCell id="UIeOPaC58UkcGCqv1Abo-12" value="Todo Application Code&amp;nbsp;&lt;div&gt;(Python WSGI App)&lt;/div&gt;" style="rounded=1;whiteSpace=wrap;html=1;fillColor=#d5e8d4;strokeColor=#82b366;" vertex="1" parent="1">
          <mxGeometry x="375" y="360" width="120" height="60" as="geometry" />
        </mxCell>
      </root>
    </mxGraphModel>
  </diagram>
  <diagram id="uiKmPD8nNhiPi4kbkTtW" name="Component">
    <mxGraphModel dx="1434" dy="772" grid="1" gridSize="10" guides="1" tooltips="1" connect="1" arrows="1" fold="1" page="1" pageScale="1" pageWidth="850" pageHeight="1100" math="0" shadow="0">
      <root>
        <mxCell id="0" />
        <mxCell id="1" parent="0" />
        <mxCell id="sQrVRHKRUVWe9jfhUlbX-11" value="Todo Application Code&amp;nbsp;&lt;div&gt;(Python WSGI App)&lt;/div&gt;" style="rounded=1;whiteSpace=wrap;html=1;labelPosition=left;verticalLabelPosition=top;align=right;verticalAlign=bottom;fillColor=#f5f5f5;fontColor=#333333;strokeColor=#666666;" vertex="1" parent="1">
          <mxGeometry x="180" y="160" width="510" height="300" as="geometry" />
        </mxCell>
        <mxCell id="sQrVRHKRUVWe9jfhUlbX-2" value="" style="edgeStyle=orthogonalEdgeStyle;rounded=0;orthogonalLoop=1;jettySize=auto;html=1;" edge="1" parent="1" source="sQrVRHKRUVWe9jfhUlbX-16" target="sQrVRHKRUVWe9jfhUlbX-7">
          <mxGeometry relative="1" as="geometry" />
        </mxCell>
        <mxCell id="sQrVRHKRUVWe9jfhUlbX-3" value="Via HTTP API" style="edgeLabel;html=1;align=center;verticalAlign=middle;resizable=0;points=[];" vertex="1" connectable="0" parent="sQrVRHKRUVWe9jfhUlbX-2">
          <mxGeometry x="-0.44" y="-3" relative="1" as="geometry">
            <mxPoint x="3" y="25" as="offset" />
          </mxGeometry>
        </mxCell>
        <mxCell id="sQrVRHKRUVWe9jfhUlbX-7" value="&lt;font style=&quot;font-size: 18px;&quot;&gt;Trello API&lt;/font&gt;" style="rounded=1;whiteSpace=wrap;html=1;fillColor=#dae8fc;strokeColor=#6c8ebf;" vertex="1" parent="1">
          <mxGeometry x="335" y="550" width="200" height="110" as="geometry" />
        </mxCell>
        <mxCell id="sQrVRHKRUVWe9jfhUlbX-8" value="" style="edgeStyle=orthogonalEdgeStyle;rounded=0;orthogonalLoop=1;jettySize=auto;html=1;entryX=0.5;entryY=0;entryDx=0;entryDy=0;" edge="1" parent="1" source="sQrVRHKRUVWe9jfhUlbX-10" target="sQrVRHKRUVWe9jfhUlbX-12">
          <mxGeometry relative="1" as="geometry" />
        </mxCell>
        <mxCell id="sQrVRHKRUVWe9jfhUlbX-9" value="Passes Request to" style="edgeLabel;html=1;align=center;verticalAlign=middle;resizable=0;points=[];" vertex="1" connectable="0" parent="sQrVRHKRUVWe9jfhUlbX-8">
          <mxGeometry x="0.4" y="-1" relative="1" as="geometry">
            <mxPoint x="1" y="-15" as="offset" />
          </mxGeometry>
        </mxCell>
        <mxCell id="sQrVRHKRUVWe9jfhUlbX-10" value="Flask Webserver" style="rounded=1;whiteSpace=wrap;html=1;fillColor=#fff2cc;strokeColor=#d6b656;" vertex="1" parent="1">
          <mxGeometry x="375" y="30" width="120" height="60" as="geometry" />
        </mxCell>
        <mxCell id="sQrVRHKRUVWe9jfhUlbX-20" value="" style="edgeStyle=orthogonalEdgeStyle;rounded=0;orthogonalLoop=1;jettySize=auto;html=1;" edge="1" parent="1" source="sQrVRHKRUVWe9jfhUlbX-12" target="sQrVRHKRUVWe9jfhUlbX-16">
          <mxGeometry relative="1" as="geometry" />
        </mxCell>
        <mxCell id="sQrVRHKRUVWe9jfhUlbX-12" value="Webserver Routes&lt;div&gt;(app.py)&lt;/div&gt;" style="rounded=1;whiteSpace=wrap;html=1;" vertex="1" parent="1">
          <mxGeometry x="375" y="200" width="120" height="60" as="geometry" />
        </mxCell>
        <mxCell id="sQrVRHKRUVWe9jfhUlbX-19" value="" style="edgeStyle=orthogonalEdgeStyle;rounded=0;orthogonalLoop=1;jettySize=auto;html=1;" edge="1" parent="1" source="sQrVRHKRUVWe9jfhUlbX-13" target="sQrVRHKRUVWe9jfhUlbX-12">
          <mxGeometry relative="1" as="geometry" />
        </mxCell>
        <mxCell id="sQrVRHKRUVWe9jfhUlbX-13" value="HTML Templates" style="rounded=1;whiteSpace=wrap;html=1;" vertex="1" parent="1">
          <mxGeometry x="210" y="200" width="120" height="60" as="geometry" />
        </mxCell>
        <mxCell id="sQrVRHKRUVWe9jfhUlbX-22" style="edgeStyle=orthogonalEdgeStyle;rounded=0;orthogonalLoop=1;jettySize=auto;html=1;entryX=1;entryY=0.5;entryDx=0;entryDy=0;" edge="1" parent="1" source="sQrVRHKRUVWe9jfhUlbX-14" target="sQrVRHKRUVWe9jfhUlbX-12">
          <mxGeometry relative="1" as="geometry">
            <Array as="points">
              <mxPoint x="528" y="280" />
              <mxPoint x="528" y="230" />
            </Array>
          </mxGeometry>
        </mxCell>
        <mxCell id="sQrVRHKRUVWe9jfhUlbX-24" style="edgeStyle=orthogonalEdgeStyle;rounded=0;orthogonalLoop=1;jettySize=auto;html=1;exitX=0;exitY=0.75;exitDx=0;exitDy=0;entryX=1;entryY=0.5;entryDx=0;entryDy=0;" edge="1" parent="1" source="sQrVRHKRUVWe9jfhUlbX-14" target="sQrVRHKRUVWe9jfhUlbX-16">
          <mxGeometry relative="1" as="geometry">
            <Array as="points">
              <mxPoint x="528" y="305" />
              <mxPoint x="528" y="340" />
            </Array>
          </mxGeometry>
        </mxCell>
        <mxCell id="sQrVRHKRUVWe9jfhUlbX-14" value="Data classes&lt;div&gt;(Item/viewModel)&lt;/div&gt;" style="rounded=1;whiteSpace=wrap;html=1;" vertex="1" parent="1">
          <mxGeometry x="560" y="260" width="120" height="60" as="geometry" />
        </mxCell>
        <mxCell id="sQrVRHKRUVWe9jfhUlbX-16" value="Trello Client" style="rounded=1;whiteSpace=wrap;html=1;" vertex="1" parent="1">
          <mxGeometry x="375" y="310" width="120" height="60" as="geometry" />
        </mxCell>
      </root>
    </mxGraphModel>
  </diagram>
</mxfile>
